<?xml version="1.0" standalone="no"?>
<!DOCTYPE svg PUBLIC "-//W3C//DTD SVG 20010904//EN"
 "http://www.w3.org/TR/2001/REC-SVG-20010904/DTD/svg10.dtd">
<svg version="1.0" xmlns="http://www.w3.org/2000/svg"
 width="100.000000pt" height="100.000000pt" viewBox="0 0 100.000000 100.000000"
 preserveAspectRatio="xMidYMid meet">

<g transform="translate(0.000000,100.000000) scale(0.100000,-0.100000)"
fill="#000000" stroke="none">
<path d="M368 858 c-255 -308 -294 -361 -306 -416 -27 -122 -4 -200 83 -287
66 -67 122 -97 218 -120 261 -62 537 105 537 325 0 87 -24 126 -223 370 -106
129 -197 236 -204 238 -6 2 -54 -48 -105 -110z m277 -168 c93 -112 176 -223
186 -245 80 -175 -110 -375 -356 -375 -209 0 -388 148 -372 306 3 28 16 72 29
97 25 49 329 428 339 424 4 -1 82 -94 174 -207z"/>
<path d="M300 603 c-32 -11 -40 -37 -40 -129 0 -71 4 -96 16 -108 18 -19 9
-55 -33 -140 -15 -28 -21 -52 -16 -57 5 -5 117 -8 249 -7 205 3 239 5 237 18
0 8 -16 48 -34 88 -32 71 -33 73 -16 101 12 21 17 52 17 110 0 74 -3 84 -25
106 -24 25 -27 25 -182 24 -87 0 -165 -3 -173 -6z m331 -33 c16 -9 19 -22 19
-95 0 -73 -3 -86 -19 -95 -26 -13 -296 -13 -322 0 -16 9 -19 22 -19 93 0 51 5
88 12 95 15 15 301 17 329 2z m5 -270 c14 -30 30 -69 38 -92 5 -17 -9 -18
-204 -18 l-210 0 10 26 c6 14 10 35 10 47 0 13 7 33 16 45 15 22 20 22 172 20
156 -3 156 -3 168 -28z"/>
<path d="M328 549 c-27 -15 -26 -144 1 -159 11 -5 75 -10 143 -10 157 0 168 6
168 90 0 87 -5 90 -163 90 -73 0 -140 -5 -149 -11z m290 -11 c7 -7 12 -38 12
-70 0 -46 -4 -59 -19 -68 -21 -11 -248 -14 -275 -4 -20 8 -23 139 -3 147 27
12 273 7 285 -5z"/>
<path d="M310 280 l-20 -40 175 0 175 0 -20 40 -20 40 -135 0 -135 0 -20 -40z
m87 24 c-3 -3 -12 -4 -19 -1 -8 3 -5 6 6 6 11 1 17 -2 13 -5z m-50 -20 c-3 -3
-12 -4 -19 -1 -8 3 -5 6 6 6 11 1 17 -2 13 -5z m40 0 c-3 -3 -12 -4 -19 -1 -8
3 -5 6 6 6 11 1 17 -2 13 -5z m160 0 c-3 -3 -12 -4 -19 -1 -8 3 -5 6 6 6 11 1
17 -2 13 -5z m60 0 c-3 -3 -12 -4 -19 -1 -8 3 -5 6 6 6 11 1 17 -2 13 -5z
m-267 -30 c0 -2 -7 -4 -15 -4 -8 0 -15 4 -15 10 0 5 7 7 15 4 8 -4 15 -8 15
-10z m37 0 c-3 -3 -12 -4 -19 -1 -8 3 -5 6 6 6 11 1 17 -2 13 -5z m100 0 c-3
-3 -12 -4 -19 -1 -8 3 -5 6 6 6 11 1 17 -2 13 -5z m40 0 c-3 -3 -12 -4 -19 -1
-8 3 -5 6 6 6 11 1 17 -2 13 -5z m46 -1 c-7 -2 -19 -2 -25 0 -7 3 -2 5 12 5
14 0 19 -2 13 -5z"/>
<path d="M400 215 c0 -12 13 -15 60 -15 47 0 60 3 60 15 0 12 -13 15 -60 15
-47 0 -60 -3 -60 -15z m88 -2 c-16 -2 -40 -2 -55 0 -16 2 -3 4 27 4 30 0 43
-2 28 -4z"/>
</g>
</svg>
